<?xml version="1.0" encoding="utf-8"?>
<!-- Generator: Adobe Illustrator 27.4.0, SVG Export Plug-In . SVG Version: 6.00 Build 0)  -->
<svg version="1.1" id="Vrstva_1" xmlns="http://www.w3.org/2000/svg" xmlns:xlink="http://www.w3.org/1999/xlink" x="0px" y="0px"
	 viewBox="0 0 116.8 116.8" style="enable-background:new 0 0 116.8 116.8;" xml:space="preserve">
<style type="text/css">
	.st0{stroke:#ECECEC;stroke-miterlimit:10;}
	.st1{fill:#ECECEC;stroke:#ECECEC;stroke-miterlimit:10;}
	.st2{fill:none;stroke:#ECECEC;stroke-width:6.7731;stroke-miterlimit:10;}
	.st3{fill:none;stroke:#ECECEC;stroke-width:10.8871;stroke-miterlimit:10;}
</style>
<g>
	<path class="st0" d="M16.7,92.5"/>
	<path class="st1" d="M39,28.3c-8.6,0-15.6,7-15.6,15.6s7,15.6,15.6,15.6c8.6,0,15.6-7,15.6-15.6S47.6,28.3,39,28.3z"/>
	<path class="st1" d="M54.6,67.4H23.4c-8.6,0-15.6,7-15.6,15.6v15.6h62.4V83C70.3,74.4,63.3,67.4,54.6,67.4z"/>
	<path class="st2" d="M96.2,63.8c-6.1,0-11,4.9-11,11c0,6.1,4.9,11,11,11s11-4.9,11-11C107.2,68.7,102.3,63.8,96.2,63.8z"/>
	<line class="st2" x1="96.2" y1="65.5" x2="96.2" y2="25.6"/>
	<line class="st2" x1="79.2" y1="95.3" x2="113.9" y2="95.3"/>
	<line class="st3" x1="2.1" y1="94.5" x2="114" y2="22.3"/>
</g>
</svg>
