<?xml version="1.0" encoding="utf-8"?>
<!-- Generator: Adobe Illustrator 27.4.0, SVG Export Plug-In . SVG Version: 6.00 Build 0)  -->
<svg version="1.1" id="Vrstva_1" xmlns="http://www.w3.org/2000/svg" xmlns:xlink="http://www.w3.org/1999/xlink" x="0px" y="0px"
	 viewBox="0 0 116.8 80.3" style="enable-background:new 0 0 116.8 80.3;" xml:space="preserve">
<style type="text/css">
	.st0{fill:#989091;}
	.st1{fill:#ECECEC;}
	.st2{fill:none;stroke:#ECECEC;stroke-width:7.4504;stroke-miterlimit:10;}
	.st3{fill:#ECECEC;stroke:#ECECEC;stroke-width:7.4504;stroke-miterlimit:10;}
</style>
<g>
	<path class="st0" d="M9.7,73.5"/>
	<path class="st1" d="M34.3,3c-9.5,0-17.2,7.7-17.2,17.2c0,9.5,7.7,17.2,17.2,17.2s17.2-7.7,17.2-17.2C51.5,10.7,43.8,3,34.3,3z"/>
	<path class="st1" d="M51.5,45.9H17.2C7.7,45.9,0,53.6,0,63.1v17.2h68.7V63.1C68.7,53.6,61,45.9,51.5,45.9z"/>
	<path class="st2" d="M97.2,41.9c-6.7,0-12.1,5.4-12.1,12.1c0,6.7,5.4,12.1,12.1,12.1s12.1-5.4,12.1-12.1
		C109.3,47.3,103.9,41.9,97.2,41.9z"/>
	<line class="st3" x1="97.2" y1="43.8" x2="97.2" y2="0"/>
	<line class="st3" x1="78.5" y1="76.6" x2="116.8" y2="76.6"/>
</g>
</svg>
