<?xml version="1.0" encoding="utf-8"?>
<!-- Generator: Adobe Illustrator 27.4.0, SVG Export Plug-In . SVG Version: 6.00 Build 0)  -->
<svg version="1.1" id="Vrstva_1" xmlns="http://www.w3.org/2000/svg" xmlns:xlink="http://www.w3.org/1999/xlink" x="0px" y="0px"
	 viewBox="0 0 116.8 116.8" style="enable-background:new 0 0 116.8 116.8;" xml:space="preserve">
<style type="text/css">
	.st0{fill:#ECECEC;stroke:#ECECEC;stroke-miterlimit:10;}
	.st1{fill:none;stroke:#ECECEC;stroke-width:7.4504;stroke-miterlimit:10;}
</style>
<path class="st0" d="M73.8,66.2L69.1,68c-1.6,0.6-2.7,2.1-2.7,3.8V81c0,5.6-4.6,10.2-10.2,10.2h-2c-2.3,0-4.1,1.8-4.1,4.1l0,0
	c0,2.3-1.8,4.1-4.1,4.1H17.6c-2.3,0-4.1-1.8-4.1-4.1v-5.1c0-6.6-2.6-13.8-6.3-19.2S1.5,58.3,1.5,51.2c0-17.8,9.9-33.3,33.3-33.3
	c22.9,0,30.7,13.3,32.7,28.7c0.1,0.6,0.3,1.2,0.6,1.7l7.7,12C77.3,62.4,76.3,65.3,73.8,66.2z"/>
<g>
	<path class="st1" d="M95,61.3c-6.7,0-12.1,5.4-12.1,12.1S88.3,85.5,95,85.5s12.1-5.4,12.1-12.1S101.7,61.3,95,61.3z"/>
	<line class="st1" x1="94.9" y1="63.2" x2="94.9" y2="19.4"/>
	<line class="st1" x1="76.3" y1="96" x2="114.5" y2="96"/>
</g>
</svg>
