<?xml version="1.0" encoding="utf-8"?>
<!-- Generator: Adobe Illustrator 27.4.0, SVG Export Plug-In . SVG Version: 6.00 Build 0)  -->
<svg version="1.1" id="Vrstva_1" xmlns="http://www.w3.org/2000/svg" xmlns:xlink="http://www.w3.org/1999/xlink" x="0px" y="0px"
	 viewBox="0 0 116.8 116.8" style="enable-background:new 0 0 116.8 116.8;" xml:space="preserve">
<style type="text/css">
	.st0{fill:#ECECEC;}
</style>
<g>
	<path class="st0" d="M84.6,14.7c0.3-0.3,0.2-0.7,0.2-1.1c0.1-1.6,0.2-3.1,0.4-4.7c-1.5-0.7-3-1.5-4.7-1.9c-5.4-0.8-11-0.5-16.5-0.5
		C53.7,6.3,43.6,5.8,33.7,8.5c0.1,1.4,0.2,2.8,0.3,4.2c0,0.5,0,1,0.3,1.4c0.2,0.5,0.2,0.7-0.1,1.2c-0.6,1.1-0.6,2.3,0.3,3.3
		c2.3,2.8,4.6,5.5,7,8.2c2,2.2,4.6,3.3,7.6,3.3c1.2,0,2.5,0.1,3.7,0.1c0.6,0,0.9,0.1,1.1,0.8c0.3,1.5,0.4,1.5,2,1.6
		c2.4,0,4.9,0,7.3,0c0.4,0,0.8-0.1,1.2-0.2c0.4-0.1,0.7-0.3,0.8-0.7c0.4-1.3,0.4-1.3,1.7-1.3c0.9,0,1.8-0.1,2.7-0.1
		c3.4,0.1,6.1-1.3,8.3-3.8c2.1-2.4,4.2-4.7,6.3-7.1c1.1-1.2,1.4-2.5,0.6-3.9C84.4,15.2,84.3,15,84.6,14.7z"/>
</g>
</svg>
