<?xml version="1.0" encoding="utf-8"?>
<!-- Generator: Adobe Illustrator 27.4.0, SVG Export Plug-In . SVG Version: 6.00 Build 0)  -->
<svg version="1.1" id="Vrstva_1" xmlns="http://www.w3.org/2000/svg" xmlns:xlink="http://www.w3.org/1999/xlink" x="0px" y="0px"
	 viewBox="0 0 200 200" style="enable-background:new 0 0 200 200;" xml:space="preserve">
<style type="text/css">
	.st0{fill:#ECECEC;}
</style>
<g>
	<path class="st0" d="M100,179.6c2.6,0.2,5-16.9,5.8-22.3c1-6.6,1.7-11.4,1.6-17.6c-0.1-14.1-3.9-31.7-7.5-31.7
		c-3.7-0.1-7.8,17.3-7.2,32.3c0.1,3.4,0.9,8.3,2.5,18.3C97.4,172.6,98.5,179.6,100,179.6z"/>
</g>
<path class="st0" d="M122.6,0.1c1.4,0,1.4,0,1.4,1.3c0,5,0,9.9-0.1,14.9c-0.1,2.1-0.1,4.2-0.1,6.3c0,0.6,0,1,0.8,1.4
	c1,0.5,1.7,1.5,2.4,2.2c0.3,0.3,0.2,0.7,0.2,1.1c-0.1,0.8,0.2,1.5,0.9,2c0.4,0.4,1,0.7,0.9,1.4c0,0.3,0.2,0.4,0.5,0.6
	c1.2,0.4,1.6,1.2,1.6,2.4c-0.1,4.2-0.1,8.4-0.1,12.6c0,0.7-0.2,1.2-0.7,1.6c-1.1,1.1-2.2,1.9-3.8,1.7c-1.2-0.1-1.3,0.1-1.4,1.3
	c-0.7,8.7-1.4,17.4-2,26.1c-0.4,5.8-0.9,11.5-1.3,17.3c0,0.3,0.1,0.7-0.2,1c-0.2,0.3-0.2,0.5,0,0.8c0.7,1.3,0.4,2.4-0.5,3.4
	c-1.8,2.1-3.7,4.1-5.5,6.2c-1.9,2.2-4.2,3.4-7.2,3.3c-0.8,0-1.6,0.1-2.4,0.1c-1.2,0-1.2,0-1.5,1.1c-0.1,0.4-0.3,0.6-0.7,0.6
	c-0.3,0.1-0.7,0.1-1,0.1c-2.1,0-4.3,0-6.4,0c-1.4,0-1.4-0.1-1.7-1.4c-0.1-0.6-0.4-0.7-0.9-0.7c-1.1,0-2.2,0-3.3-0.1
	c-2.7,0-4.9-1-6.7-2.9c-2.1-2.4-4.1-4.8-6.1-7.2c-0.8-0.9-0.8-1.9-0.2-2.9c0.2-0.4,0.3-0.6,0.1-1c-0.2-0.4-0.2-0.8-0.2-1.3
	c-0.6-8.8-1.2-17.7-1.8-26.5c-0.4-5.3-0.7-10.6-1-16c0-0.3,0-0.6,0-0.9c-0.1-0.6-0.4-0.9-1.1-0.9c-1,0-2,0-2.9-0.7
	c-1.3-1-2-2.2-1.9-3.9c0.2-3.8,0.2-7.5,0.1-11.3c0-1.3,0.6-2,1.6-2.4c0.3-0.1,0.7-0.1,0.7-0.5c0-0.9,0.6-1.3,1.1-1.7
	c0.6-0.4,0.8-1,0.7-1.6c-0.1-0.8,0.2-1.5,0.9-2c0.8-0.5,1.3-1.5,2.3-1.7c0.3-0.1,0.3-0.3,0.3-0.6c0-0.3,0-0.7,0-1
	c0-6.7,0.1-13.4,0.1-20.2c0-1.7-0.1-1.6,1.6-1.6c5.7,0,11.5,0,17.2,0.1C99.2,0.2,117,0.1,122.6,0.1z"/>
</svg>
