<?xml version="1.0" encoding="utf-8"?>
<!-- Generator: Adobe Illustrator 27.4.0, SVG Export Plug-In . SVG Version: 6.00 Build 0)  -->
<svg version="1.1" id="Vrstva_1" xmlns="http://www.w3.org/2000/svg" xmlns:xlink="http://www.w3.org/1999/xlink" x="0px" y="0px"
	 viewBox="0 0 116.8 116.8" style="enable-background:new 0 0 116.8 116.8;" xml:space="preserve">
<style type="text/css">
	.st0{fill:#989091;}
	.st1{fill:#ECECEC;}
	.st2{fill:none;stroke:#ECECEC;stroke-width:7.4504;stroke-miterlimit:10;}
</style>
<g>
	<path class="st0" d="M9.7,91.8"/>
	<path class="st1" d="M34.3,21.2c-9.5,0-17.2,7.7-17.2,17.2s7.7,17.2,17.2,17.2S51.5,48,51.5,38.5S43.8,21.2,34.3,21.2z"/>
	<path class="st1" d="M51.5,64.2H17.2C7.7,64.2,0,71.8,0,81.3v17.2h68.7V81.3C68.7,71.8,61,64.2,51.5,64.2z"/>
	<path class="st2" d="M97.2,60.2c-6.7,0-12.1,5.4-12.1,12.1s5.4,12.1,12.1,12.1s12.1-5.4,12.1-12.1C109.3,65.5,103.9,60.2,97.2,60.2
		z"/>
	<line class="st2" x1="97.2" y1="62" x2="97.2" y2="18.2"/>
	<line class="st2" x1="78.5" y1="94.8" x2="116.8" y2="94.8"/>
</g>
</svg>
