<?xml version="1.0" encoding="utf-8"?>
<!-- Generator: Adobe Illustrator 27.4.0, SVG Export Plug-In . SVG Version: 6.00 Build 0)  -->
<svg version="1.1" id="Vrstva_1" xmlns="http://www.w3.org/2000/svg" xmlns:xlink="http://www.w3.org/1999/xlink" x="0px" y="0px"
	 viewBox="0 0 116.8 116.8" style="enable-background:new 0 0 116.8 116.8;" xml:space="preserve">
<style type="text/css">
	.st0{fill:#ECECEC;}
</style>
<g>
	<g>
		<path class="st0" d="M16.4,105.5c2.6-2.9,5.3-5.9,7.9-8.8c2.5-2.8,4.9-5.6,7.3-8.4c2.5-2.8,5-5.6,7.5-8.4s4.9-5.6,7.4-8.4
			c0.8-0.9,1.7-1.8,2.5-2.7c-4.8-5.6-9.6-11.1-14.4-16.6c0-0.1,0.1-0.2,0.1-0.3c1.3,0.2,2.6,0.3,3.9,0.5c1.6,0.2,3.2,0.5,4.9,0.8
			c2.2,0.4,4.3,0.7,6.5,1.1c1,0.1,1.9,0.3,2.9,0.4c0.6,0.1,0.9-0.2,0.9-0.9c0.2-3.1,0.5-6.1,0.7-9.2c0.3-3.7,0.7-7.5,1-11.2
			c0.2-2.3,0.4-4.6,0.7-6.8c0.2-2,0.4-3.9,0.6-5.9c0.2,0,0.4,0,0.7,0c1.1,2.2,2.2,4.5,3.3,6.7c1.4,2.8,2.9,5.5,4.4,8.3
			c2.3,4.4,4.6,8.8,6.9,13.1c0.6,1.1,1.1,2.3,1.8,3.6c8.6-3.7,17.1-7.4,25.6-11.1c0.1,0.1,0.2,0.1,0.3,0.2c-5.9,9.5-12,18.8-18,28.2
			c5.5,5.6,11.1,11.1,16.6,16.8c-0.1,0.1-0.2,0.2-0.2,0.3c-8.8-2-17.5-4-26.4-6c-0.3,10.1-0.6,20-0.9,30.3c-0.4-0.4-0.7-0.6-0.8-0.8
			c-2.8-6.3-5.6-12.6-8.5-18.8c-0.8-1.9-1.7-3.7-2.6-5.7c-1.5,0.7-2.9,1.3-4.4,2c-3.1,1.5-6.1,3-9.2,4.5c-5.6,2.7-11.2,5.4-16.8,8.1
			c-3.7,1.8-7.4,3.6-11.1,5.4c-0.3,0.1-0.7,0.1-1,0.2C16.3,105.8,16.4,105.6,16.4,105.5z M28.7,96.4c0.1,0.1,0.1,0.1,0.2,0.2
			c10.4-5.1,20.9-10.3,31.4-15.5c2.5,5.5,5,10.9,7.5,16.4c0.1,0,0.2,0,0.3-0.1c0.2-6.9,0.4-13.9,0.6-20.8c6.6,1.5,13.1,3,19.6,4.4
			c0-0.1,0.1-0.2,0.1-0.3c-1.7-1.6-3.4-3.2-5-4.8c-1.8-1.8-3.5-3.6-5.3-5.3c-0.5-0.4-0.6-0.7-0.2-1.3c0.9-1.2,1.6-2.6,2.5-3.8
			c2.6-4.1,5.3-8.2,7.9-12.3c1.2-1.8,2.3-3.7,3.6-5.7c-2.7,1.1-5.1,2.2-7.5,3.2c-3.8,1.6-7.6,3.3-11.4,5c-0.6,0.3-0.9,0.3-1.2-0.4
			c-0.9-1.9-2-3.8-3-5.7c-2.6-5.1-5.3-10.2-7.9-15.4c-0.5-1-1.1-2-1.8-3.4c-0.2,1.6-0.4,2.9-0.5,4.1c-0.2,2-0.4,3.9-0.6,5.9
			c-0.4,3.7-0.7,7.4-1,11.1c-0.2,2-0.4,4.1-0.7,6.3c-4.6-0.7-9.1-1.4-13.7-2.1c0.7,0.8,1.2,1.6,1.9,2.3c2.7,3.2,5.5,6.3,8.2,9.4
			c0.4,0.5,0.5,0.8,0,1.3c-1.1,1.2-2.1,2.4-3.2,3.6c-3.6,4.1-7.2,8.3-10.8,12.4C35.3,89.1,32,92.7,28.7,96.4z"/>
		<path class="st0" d="M28.7,96.4c3.3-3.7,6.6-7.4,9.8-11.1c3.6-4.1,7.2-8.3,10.8-12.4c1.1-1.2,2.1-2.4,3.2-3.6
			c0.5-0.5,0.4-0.8,0-1.3c-2.8-3.1-5.5-6.3-8.2-9.4c-0.6-0.7-1.2-1.5-1.9-2.3c4.6,0.7,9.1,1.4,13.7,2.1c0.3-2.2,0.5-4.3,0.7-6.3
			c0.4-3.7,0.7-7.4,1-11.1c0.2-2,0.4-3.9,0.6-5.9c0.1-1.3,0.3-2.5,0.5-4.1c0.7,1.3,1.3,2.3,1.8,3.4c2.6,5.1,5.3,10.2,7.9,15.4
			c1,1.9,2,3.8,3,5.7c0.3,0.7,0.6,0.7,1.2,0.4c3.8-1.7,7.6-3.3,11.4-5c2.4-1,4.8-2.1,7.5-3.2c-1.3,2.1-2.4,3.9-3.6,5.7
			c-2.6,4.1-5.3,8.2-7.9,12.3c-0.8,1.3-1.6,2.6-2.5,3.8c-0.4,0.6-0.3,0.8,0.2,1.3c1.8,1.7,3.5,3.6,5.3,5.3c1.6,1.6,3.4,3.2,5,4.8
			c0,0.1-0.1,0.2-0.1,0.3c-6.5-1.5-13-2.9-19.6-4.4c-0.2,7-0.4,13.9-0.6,20.8c-0.1,0-0.2,0-0.3,0.1c-2.5-5.5-5-11-7.5-16.4
			c-10.6,5.2-21,10.3-31.4,15.5C28.8,96.5,28.8,96.5,28.7,96.4z"/>
	</g>
	<path class="st0" d="M84.6,14.7c0.3-0.3,0.2-0.7,0.2-1.1c0.1-1.6,0.2-3.1,0.4-4.7c-1.5-0.7-3-1.5-4.7-1.9c-5.4-0.8-11-0.5-16.5-0.5
		C53.7,6.3,43.6,5.8,33.7,8.5c0.1,1.4,0.2,2.8,0.3,4.2c0,0.5,0,1,0.3,1.4c0.2,0.5,0.2,0.7-0.1,1.2c-0.6,1.1-0.6,2.3,0.3,3.3
		c2.3,2.8,4.6,5.5,7,8.2c2,2.2,4.6,3.3,7.6,3.3c1.2,0,2.5,0.1,3.7,0.1c0.6,0,0.9,0.1,1.1,0.8c0.3,1.5,0.4,1.5,2,1.6
		c2.4,0,4.9,0,7.3,0c0.4,0,0.8-0.1,1.2-0.2c0.4-0.1,0.7-0.3,0.8-0.7c0.4-1.3,0.4-1.3,1.7-1.3c0.9,0,1.8-0.1,2.7-0.1
		c3.4,0.1,6.1-1.3,8.3-3.8c2.1-2.4,4.2-4.7,6.3-7.1c1.1-1.2,1.4-2.5,0.6-3.9C84.4,15.2,84.3,15,84.6,14.7z"/>
</g>
</svg>
