<?xml version="1.0" encoding="utf-8"?>
<!-- Generator: Adobe Illustrator 27.4.0, SVG Export Plug-In . SVG Version: 6.00 Build 0)  -->
<svg version="1.1" id="Vrstva_1" xmlns="http://www.w3.org/2000/svg" xmlns:xlink="http://www.w3.org/1999/xlink" x="0px" y="0px"
	 viewBox="0 0 200 200" style="enable-background:new 0 0 200 200;" xml:space="preserve">
<style type="text/css">
	.st0{fill:#ECECEC;stroke:#ECECEC;stroke-miterlimit:10;}
	.st1{fill:#ECECEC;stroke:#ECECEC;stroke-width:3.2027;stroke-miterlimit:10;}
</style>
<g>
	<g>
		<path class="st0" d="M79.1,142.7c2.1,0.1,4.1-13.8,4.8-18.3c0.8-5.4,1.4-9.4,1.3-14.4C85.1,98.5,82,84.1,79,84
			c-3,0-6.4,14.2-5.9,26.5c0.1,2.7,0.8,6.8,2,15C76.9,136.9,77.8,142.6,79.1,142.7z"/>
	</g>
	<path class="st0" d="M97.6-2.7c1.1,0,1.2,0,1.2,1.1c0,4.1,0,8.1-0.1,12.2c0,1.7-0.1,3.4-0.1,5.2c0,0.5,0,0.8,0.7,1.2
		c0.8,0.4,1.4,1.2,2,1.8c0.3,0.3,0.2,0.6,0.2,0.9c-0.1,0.7,0.2,1.2,0.7,1.6c0.4,0.3,0.8,0.6,0.8,1.1c0,0.3,0.2,0.4,0.4,0.4
		c1,0.3,1.3,1,1.3,2c-0.1,3.4-0.1,6.9-0.1,10.3c0,0.6-0.2,0.9-0.6,1.3c-0.9,0.9-1.8,1.5-3.1,1.4c-1-0.1-1.1,0.1-1.1,1.1
		c-0.6,7.1-1.1,14.2-1.7,21.4c-0.4,4.7-0.7,9.4-1.1,14.1c0,0.3,0.1,0.6-0.1,0.8c-0.2,0.2-0.1,0.4,0,0.6c0.6,1,0.4,1.9-0.4,2.8
		c-1.5,1.7-3,3.4-4.5,5.1c-1.5,1.8-3.5,2.8-5.9,2.7c-0.6,0-1.3,0.1-1.9,0.1c-0.9,0-1,0-1.2,0.9c-0.1,0.3-0.3,0.5-0.6,0.5
		C82,88,81.8,88,81.5,88c-1.7,0-3.5,0-5.2,0c-1.1,0-1.2-0.1-1.4-1.1c-0.1-0.4-0.3-0.6-0.8-0.6c-0.9,0-1.8,0-2.7-0.1
		c-2.2,0-4-0.8-5.4-2.4c-1.7-1.9-3.4-3.9-5-5.9c-0.6-0.7-0.7-1.6-0.2-2.4c0.2-0.3,0.2-0.5,0.1-0.8c-0.2-0.3-0.2-0.7-0.2-1
		c-0.5-7.2-1-14.5-1.4-21.7c-0.3-4.4-0.6-8.7-0.8-13.1c0-0.2,0-0.5,0-0.7c-0.1-0.5-0.3-0.7-0.9-0.7c-0.8,0-1.7,0-2.4-0.6
		c-1.1-0.8-1.6-1.8-1.5-3.2c0.2-3.1,0.1-6.2,0.1-9.3c0-1,0.4-1.6,1.3-2c0.2-0.1,0.6-0.1,0.5-0.4c0-0.7,0.5-1,0.9-1.4
		c0.4-0.3,0.6-0.8,0.6-1.3c-0.1-0.7,0.2-1.2,0.8-1.6c0.7-0.4,1-1.2,1.9-1.4c0.2-0.1,0.3-0.3,0.3-0.5c0-0.3,0-0.6,0-0.8
		c0-5.5,0-11,0.1-16.5c0-1.3-0.1-1.3,1.3-1.3c4.7,0,9.4,0,14.1,0C78.4-2.7,93-2.7,97.6-2.7z"/>
	<path class="st1" d="M121.3,96.3l-31.9,13.8c-0.2,0.9-0.6,4.8-0.7,5.8c-0.3,2.8-0.9,9.9-1.5,13.1c6.1-0.6,12,1.4,13.4,6.4
		c3.4,12.4-24.4,19.7-30.2,8.2c-1-1.9-1-6.7,2.4-10.5c-1-5-2.1-11.4-2.7-15.4L30,135.7l53.2,63.1l92-44L121.3,96.3z"/>
</g>
</svg>
